<mxfile host="app.diagrams.net" agent="Mozilla/5.0 (Macintosh; Intel Mac OS X 10_15_7) AppleWebKit/537.36 (KHTML, like Gecko) Chrome/135.0.0.0 Safari/537.36" version="26.2.13">
  <diagram name="Page-1" id="t-XNhZ0xQoL7AoSncOq3">
    <mxGraphModel dx="1151" dy="741" grid="1" gridSize="10" guides="1" tooltips="1" connect="1" arrows="1" fold="1" page="1" pageScale="1" pageWidth="850" pageHeight="1100" background="light-dark(#FFFFFF,#FFFFFF)" math="0" shadow="0">
      <root>
        <mxCell id="0" />
        <mxCell id="1" parent="0" />
        <mxCell id="gTMoJr0rk_Im4F08ddPx-3" value="AWS Cloud - Joe Lillian Joseph Gracias Edmon" style="sketch=0;outlineConnect=0;gradientColor=none;html=1;whiteSpace=wrap;fontSize=12;fontStyle=0;shape=mxgraph.aws4.group;grIcon=mxgraph.aws4.group_aws_cloud;strokeColor=#AAB7B8;fillColor=none;verticalAlign=top;align=left;spacingLeft=30;fontColor=#AAB7B8;dashed=0;" vertex="1" parent="1">
          <mxGeometry x="30" y="80" width="790" height="740" as="geometry" />
        </mxCell>
        <mxCell id="gTMoJr0rk_Im4F08ddPx-4" value="Region" style="points=[[0,0],[0.25,0],[0.5,0],[0.75,0],[1,0],[1,0.25],[1,0.5],[1,0.75],[1,1],[0.75,1],[0.5,1],[0.25,1],[0,1],[0,0.75],[0,0.5],[0,0.25]];outlineConnect=0;gradientColor=none;html=1;whiteSpace=wrap;fontSize=12;fontStyle=0;container=1;pointerEvents=0;collapsible=0;recursiveResize=0;shape=mxgraph.aws4.group;grIcon=mxgraph.aws4.group_region;strokeColor=#00A4A6;fillColor=none;verticalAlign=top;align=left;spacingLeft=30;fontColor=#147EBA;dashed=1;" vertex="1" parent="1">
          <mxGeometry x="70" y="130" width="720" height="670" as="geometry" />
        </mxCell>
        <mxCell id="gTMoJr0rk_Im4F08ddPx-5" value="VPC 192.168.1.0/16" style="points=[[0,0],[0.25,0],[0.5,0],[0.75,0],[1,0],[1,0.25],[1,0.5],[1,0.75],[1,1],[0.75,1],[0.5,1],[0.25,1],[0,1],[0,0.75],[0,0.5],[0,0.25]];outlineConnect=0;gradientColor=none;html=1;whiteSpace=wrap;fontSize=12;fontStyle=0;container=1;pointerEvents=0;collapsible=0;recursiveResize=0;shape=mxgraph.aws4.group;grIcon=mxgraph.aws4.group_vpc2;strokeColor=#8C4FFF;fillColor=none;verticalAlign=top;align=left;spacingLeft=30;fontColor=#AAB7B8;dashed=0;" vertex="1" parent="gTMoJr0rk_Im4F08ddPx-4">
          <mxGeometry x="20" y="50" width="680" height="600" as="geometry" />
        </mxCell>
        <mxCell id="gTMoJr0rk_Im4F08ddPx-6" value="Public subnet" style="points=[[0,0],[0.25,0],[0.5,0],[0.75,0],[1,0],[1,0.25],[1,0.5],[1,0.75],[1,1],[0.75,1],[0.5,1],[0.25,1],[0,1],[0,0.75],[0,0.5],[0,0.25]];outlineConnect=0;gradientColor=none;html=1;whiteSpace=wrap;fontSize=12;fontStyle=0;container=1;pointerEvents=0;collapsible=0;recursiveResize=0;shape=mxgraph.aws4.group;grIcon=mxgraph.aws4.group_security_group;grStroke=0;strokeColor=#7AA116;fillColor=#F2F6E8;verticalAlign=top;align=left;spacingLeft=30;fontColor=#248814;dashed=0;" vertex="1" parent="gTMoJr0rk_Im4F08ddPx-5">
          <mxGeometry x="40" y="60" width="130" height="130" as="geometry" />
        </mxCell>
        <mxCell id="gTMoJr0rk_Im4F08ddPx-7" value="Private subnet" style="points=[[0,0],[0.25,0],[0.5,0],[0.75,0],[1,0],[1,0.25],[1,0.5],[1,0.75],[1,1],[0.75,1],[0.5,1],[0.25,1],[0,1],[0,0.75],[0,0.5],[0,0.25]];outlineConnect=0;gradientColor=none;html=1;whiteSpace=wrap;fontSize=12;fontStyle=0;container=1;pointerEvents=0;collapsible=0;recursiveResize=0;shape=mxgraph.aws4.group;grIcon=mxgraph.aws4.group_security_group;grStroke=0;strokeColor=#00A4A6;fillColor=#E6F6F7;verticalAlign=top;align=left;spacingLeft=30;fontColor=#147EBA;dashed=0;" vertex="1" parent="gTMoJr0rk_Im4F08ddPx-5">
          <mxGeometry x="265" y="60" width="130" height="130" as="geometry" />
        </mxCell>
        <mxCell id="gTMoJr0rk_Im4F08ddPx-8" value="Private subnet" style="points=[[0,0],[0.25,0],[0.5,0],[0.75,0],[1,0],[1,0.25],[1,0.5],[1,0.75],[1,1],[0.75,1],[0.5,1],[0.25,1],[0,1],[0,0.75],[0,0.5],[0,0.25]];outlineConnect=0;gradientColor=none;html=1;whiteSpace=wrap;fontSize=12;fontStyle=0;container=1;pointerEvents=0;collapsible=0;recursiveResize=0;shape=mxgraph.aws4.group;grIcon=mxgraph.aws4.group_security_group;grStroke=0;strokeColor=#00A4A6;fillColor=#E6F6F7;verticalAlign=top;align=left;spacingLeft=30;fontColor=#147EBA;dashed=0;" vertex="1" parent="gTMoJr0rk_Im4F08ddPx-5">
          <mxGeometry x="490" y="60" width="130" height="130" as="geometry" />
        </mxCell>
        <mxCell id="gTMoJr0rk_Im4F08ddPx-16" value="" style="outlineConnect=0;dashed=0;verticalLabelPosition=bottom;verticalAlign=top;align=center;html=1;shape=mxgraph.aws3.rds_db_instance_read_replica;fillColor=#2E73B8;gradientColor=none;" vertex="1" parent="gTMoJr0rk_Im4F08ddPx-8">
          <mxGeometry x="70" y="42" width="49.5" height="66" as="geometry" />
        </mxCell>
        <mxCell id="gTMoJr0rk_Im4F08ddPx-9" value="Private subnet" style="points=[[0,0],[0.25,0],[0.5,0],[0.75,0],[1,0],[1,0.25],[1,0.5],[1,0.75],[1,1],[0.75,1],[0.5,1],[0.25,1],[0,1],[0,0.75],[0,0.5],[0,0.25]];outlineConnect=0;gradientColor=none;html=1;whiteSpace=wrap;fontSize=12;fontStyle=0;container=1;pointerEvents=0;collapsible=0;recursiveResize=0;shape=mxgraph.aws4.group;grIcon=mxgraph.aws4.group_security_group;grStroke=0;strokeColor=#00A4A6;fillColor=#E6F6F7;verticalAlign=top;align=left;spacingLeft=30;fontColor=#147EBA;dashed=0;" vertex="1" parent="gTMoJr0rk_Im4F08ddPx-5">
          <mxGeometry x="265" y="410" width="130" height="130" as="geometry" />
        </mxCell>
        <mxCell id="gTMoJr0rk_Im4F08ddPx-10" value="Private subnet" style="points=[[0,0],[0.25,0],[0.5,0],[0.75,0],[1,0],[1,0.25],[1,0.5],[1,0.75],[1,1],[0.75,1],[0.5,1],[0.25,1],[0,1],[0,0.75],[0,0.5],[0,0.25]];outlineConnect=0;gradientColor=none;html=1;whiteSpace=wrap;fontSize=12;fontStyle=0;container=1;pointerEvents=0;collapsible=0;recursiveResize=0;shape=mxgraph.aws4.group;grIcon=mxgraph.aws4.group_security_group;grStroke=0;strokeColor=#00A4A6;fillColor=#E6F6F7;verticalAlign=top;align=left;spacingLeft=30;fontColor=#147EBA;dashed=0;" vertex="1" parent="gTMoJr0rk_Im4F08ddPx-5">
          <mxGeometry x="510" y="410" width="130" height="130" as="geometry" />
        </mxCell>
        <mxCell id="gTMoJr0rk_Im4F08ddPx-14" value="" style="sketch=0;points=[[0,0,0],[0.25,0,0],[0.5,0,0],[0.75,0,0],[1,0,0],[0,1,0],[0.25,1,0],[0.5,1,0],[0.75,1,0],[1,1,0],[0,0.25,0],[0,0.5,0],[0,0.75,0],[1,0.25,0],[1,0.5,0],[1,0.75,0]];outlineConnect=0;fontColor=#232F3E;fillColor=#DD344C;strokeColor=#ffffff;dashed=0;verticalLabelPosition=bottom;verticalAlign=top;align=center;html=1;fontSize=12;fontStyle=0;aspect=fixed;shape=mxgraph.aws4.resourceIcon;resIcon=mxgraph.aws4.secrets_manager;" vertex="1" parent="gTMoJr0rk_Im4F08ddPx-10">
          <mxGeometry x="20" y="70" width="38" height="38" as="geometry" />
        </mxCell>
        <mxCell id="gTMoJr0rk_Im4F08ddPx-11" value="Public subnet" style="points=[[0,0],[0.25,0],[0.5,0],[0.75,0],[1,0],[1,0.25],[1,0.5],[1,0.75],[1,1],[0.75,1],[0.5,1],[0.25,1],[0,1],[0,0.75],[0,0.5],[0,0.25]];outlineConnect=0;gradientColor=none;html=1;whiteSpace=wrap;fontSize=12;fontStyle=0;container=1;pointerEvents=0;collapsible=0;recursiveResize=0;shape=mxgraph.aws4.group;grIcon=mxgraph.aws4.group_security_group;grStroke=0;strokeColor=#7AA116;fillColor=#F2F6E8;verticalAlign=top;align=left;spacingLeft=30;fontColor=#248814;dashed=0;" vertex="1" parent="gTMoJr0rk_Im4F08ddPx-5">
          <mxGeometry x="40" y="410" width="130" height="130" as="geometry" />
        </mxCell>
        <mxCell id="gTMoJr0rk_Im4F08ddPx-12" value="" style="outlineConnect=0;dashed=0;verticalLabelPosition=bottom;verticalAlign=top;align=center;html=1;shape=mxgraph.aws3.application_load_balancer;fillColor=#F58534;gradientColor=none;" vertex="1" parent="gTMoJr0rk_Im4F08ddPx-5">
          <mxGeometry x="71" y="264" width="69" height="72" as="geometry" />
        </mxCell>
        <mxCell id="gTMoJr0rk_Im4F08ddPx-13" value="" style="outlineConnect=0;dashed=0;verticalLabelPosition=bottom;verticalAlign=top;align=center;html=1;shape=mxgraph.aws3.auto_scaling;fillColor=#F58534;gradientColor=none;" vertex="1" parent="gTMoJr0rk_Im4F08ddPx-5">
          <mxGeometry x="291" y="264" width="79.5" height="76.5" as="geometry" />
        </mxCell>
        <mxCell id="gTMoJr0rk_Im4F08ddPx-18" value="Availability Zone" style="fillColor=none;strokeColor=#147EBA;dashed=1;verticalAlign=top;fontStyle=0;fontColor=#147EBA;whiteSpace=wrap;html=1;" vertex="1" parent="gTMoJr0rk_Im4F08ddPx-5">
          <mxGeometry x="10" y="38" width="640" height="202" as="geometry" />
        </mxCell>
        <mxCell id="gTMoJr0rk_Im4F08ddPx-19" value="Availability Zone" style="fillColor=none;strokeColor=#147EBA;dashed=1;verticalAlign=top;fontStyle=0;fontColor=#147EBA;whiteSpace=wrap;html=1;" vertex="1" parent="gTMoJr0rk_Im4F08ddPx-5">
          <mxGeometry x="10" y="380" width="650" height="190" as="geometry" />
        </mxCell>
        <mxCell id="gTMoJr0rk_Im4F08ddPx-21" value="" style="rounded=1;arcSize=10;dashed=1;strokeColor=#F59D56;fillColor=none;gradientColor=none;dashPattern=8 4;strokeWidth=2;" vertex="1" parent="gTMoJr0rk_Im4F08ddPx-5">
          <mxGeometry x="20" y="40" width="170" height="509.5" as="geometry" />
        </mxCell>
        <mxCell id="gTMoJr0rk_Im4F08ddPx-22" value="" style="rounded=1;arcSize=10;dashed=1;strokeColor=#F59D56;fillColor=none;gradientColor=none;dashPattern=8 4;strokeWidth=2;" vertex="1" parent="gTMoJr0rk_Im4F08ddPx-5">
          <mxGeometry x="245.75" y="38" width="170" height="522" as="geometry" />
        </mxCell>
        <mxCell id="gTMoJr0rk_Im4F08ddPx-23" value="" style="rounded=1;arcSize=10;dashed=1;strokeColor=#F59D56;fillColor=none;gradientColor=none;dashPattern=8 4;strokeWidth=2;" vertex="1" parent="gTMoJr0rk_Im4F08ddPx-5">
          <mxGeometry x="470" y="39" width="170" height="522" as="geometry" />
        </mxCell>
        <mxCell id="gTMoJr0rk_Im4F08ddPx-24" value="" style="outlineConnect=0;dashed=0;verticalLabelPosition=bottom;verticalAlign=top;align=center;html=1;shape=mxgraph.aws3.classic_load_balancer;fillColor=#F58536;gradientColor=none;" vertex="1" parent="gTMoJr0rk_Im4F08ddPx-5">
          <mxGeometry x="80" y="110" width="39" height="37" as="geometry" />
        </mxCell>
        <mxCell id="gTMoJr0rk_Im4F08ddPx-25" value="" style="outlineConnect=0;dashed=0;verticalLabelPosition=bottom;verticalAlign=top;align=center;html=1;shape=mxgraph.aws3.classic_load_balancer;fillColor=#F58536;gradientColor=none;" vertex="1" parent="gTMoJr0rk_Im4F08ddPx-5">
          <mxGeometry x="91" y="456.5" width="29" height="37" as="geometry" />
        </mxCell>
        <mxCell id="gTMoJr0rk_Im4F08ddPx-26" value="&lt;font style=&quot;color: light-dark(rgb(0, 0, 0), rgb(0, 0, 0));&quot;&gt;App Load Balancer&lt;/font&gt;&lt;div&gt;&lt;font style=&quot;color: light-dark(rgb(0, 0, 0), rgb(0, 0, 0));&quot;&gt;192.168.0.10&lt;/font&gt;&lt;/div&gt;" style="text;html=1;align=center;verticalAlign=middle;resizable=0;points=[];autosize=1;strokeColor=none;fillColor=none;" vertex="1" parent="gTMoJr0rk_Im4F08ddPx-5">
          <mxGeometry x="34.5" y="331" width="130" height="40" as="geometry" />
        </mxCell>
        <mxCell id="gTMoJr0rk_Im4F08ddPx-27" value="" style="outlineConnect=0;dashed=0;verticalLabelPosition=bottom;verticalAlign=top;align=center;html=1;shape=mxgraph.aws3.ec2;fillColor=#F58534;gradientColor=none;" vertex="1" parent="gTMoJr0rk_Im4F08ddPx-5">
          <mxGeometry x="302" y="97" width="48" height="73" as="geometry" />
        </mxCell>
        <mxCell id="gTMoJr0rk_Im4F08ddPx-28" value="" style="outlineConnect=0;dashed=0;verticalLabelPosition=bottom;verticalAlign=top;align=center;html=1;shape=mxgraph.aws3.ec2;fillColor=#F58534;gradientColor=none;" vertex="1" parent="gTMoJr0rk_Im4F08ddPx-5">
          <mxGeometry x="311" y="456.5" width="48" height="73" as="geometry" />
        </mxCell>
        <mxCell id="gTMoJr0rk_Im4F08ddPx-29" value="&lt;font style=&quot;color: light-dark(rgb(0, 0, 0), rgb(247, 247, 247));&quot;&gt;192.168.1.0/24&lt;/font&gt;" style="text;html=1;align=center;verticalAlign=middle;resizable=0;points=[];autosize=1;strokeColor=none;fillColor=none;" vertex="1" parent="gTMoJr0rk_Im4F08ddPx-5">
          <mxGeometry x="55" y="80" width="100" height="30" as="geometry" />
        </mxCell>
        <mxCell id="gTMoJr0rk_Im4F08ddPx-30" value="&lt;font style=&quot;color: light-dark(rgb(0, 0, 0), rgb(247, 247, 247));&quot;&gt;192.168.3&lt;/font&gt;&lt;span style=&quot;color: light-dark(rgb(0, 0, 0), rgb(247, 247, 247)); background-color: transparent;&quot;&gt;.0/24&lt;/span&gt;" style="text;html=1;align=center;verticalAlign=middle;resizable=0;points=[];autosize=1;strokeColor=none;fillColor=none;" vertex="1" parent="gTMoJr0rk_Im4F08ddPx-5">
          <mxGeometry x="285" y="80" width="100" height="30" as="geometry" />
        </mxCell>
        <mxCell id="gTMoJr0rk_Im4F08ddPx-31" value="&lt;font style=&quot;color: light-dark(rgb(0, 0, 0), rgb(247, 247, 247));&quot;&gt;192.168.5&lt;/font&gt;&lt;span style=&quot;color: light-dark(rgb(0, 0, 0), rgb(247, 247, 247)); background-color: transparent;&quot;&gt;.0/24&lt;/span&gt;" style="text;html=1;align=center;verticalAlign=middle;resizable=0;points=[];autosize=1;strokeColor=none;fillColor=none;" vertex="1" parent="gTMoJr0rk_Im4F08ddPx-5">
          <mxGeometry x="510" y="80" width="100" height="30" as="geometry" />
        </mxCell>
        <mxCell id="gTMoJr0rk_Im4F08ddPx-32" value="&lt;font style=&quot;color: light-dark(rgb(0, 0, 0), rgb(247, 247, 247));&quot;&gt;192.168.2.0/24&lt;/font&gt;" style="text;html=1;align=center;verticalAlign=middle;resizable=0;points=[];autosize=1;strokeColor=none;fillColor=none;" vertex="1" parent="gTMoJr0rk_Im4F08ddPx-5">
          <mxGeometry x="55.5" y="426.5" width="100" height="30" as="geometry" />
        </mxCell>
        <mxCell id="gTMoJr0rk_Im4F08ddPx-33" value="&lt;font style=&quot;color: light-dark(rgb(0, 0, 0), rgb(247, 247, 247));&quot;&gt;192.168.4.0/24&lt;/font&gt;" style="text;html=1;align=center;verticalAlign=middle;resizable=0;points=[];autosize=1;strokeColor=none;fillColor=none;" vertex="1" parent="gTMoJr0rk_Im4F08ddPx-5">
          <mxGeometry x="285" y="426.5" width="100" height="30" as="geometry" />
        </mxCell>
        <mxCell id="gTMoJr0rk_Im4F08ddPx-34" value="&lt;font style=&quot;color: light-dark(rgb(0, 0, 0), rgb(247, 247, 247));&quot;&gt;192.168.1.0/24&lt;/font&gt;" style="text;html=1;align=center;verticalAlign=middle;resizable=0;points=[];autosize=1;strokeColor=none;fillColor=none;" vertex="1" parent="gTMoJr0rk_Im4F08ddPx-5">
          <mxGeometry x="525" y="426.5" width="100" height="30" as="geometry" />
        </mxCell>
        <mxCell id="gTMoJr0rk_Im4F08ddPx-35" value="&lt;font style=&quot;color: light-dark(rgb(0, 0, 0), rgb(10, 10, 10));&quot;&gt;Autoscaling Group&lt;/font&gt;" style="text;html=1;align=center;verticalAlign=middle;resizable=0;points=[];autosize=1;strokeColor=none;fillColor=none;" vertex="1" parent="gTMoJr0rk_Im4F08ddPx-5">
          <mxGeometry x="266" y="340.5" width="120" height="30" as="geometry" />
        </mxCell>
        <mxCell id="gTMoJr0rk_Im4F08ddPx-15" value="" style="sketch=0;points=[[0,0,0],[0.25,0,0],[0.5,0,0],[0.75,0,0],[1,0,0],[0,1,0],[0.25,1,0],[0.5,1,0],[0.75,1,0],[1,1,0],[0,0.25,0],[0,0.5,0],[0,0.75,0],[1,0.25,0],[1,0.5,0],[1,0.75,0]];outlineConnect=0;fontColor=#232F3E;fillColor=#DD344C;strokeColor=#ffffff;dashed=0;verticalLabelPosition=bottom;verticalAlign=top;align=center;html=1;fontSize=12;fontStyle=0;aspect=fixed;shape=mxgraph.aws4.resourceIcon;resIcon=mxgraph.aws4.secrets_manager;" vertex="1" parent="1">
          <mxGeometry x="600" y="320" width="38" height="38" as="geometry" />
        </mxCell>
        <mxCell id="gTMoJr0rk_Im4F08ddPx-17" value="" style="outlineConnect=0;dashed=0;verticalLabelPosition=bottom;verticalAlign=top;align=center;html=1;shape=mxgraph.aws3.rds_db_instance_read_replica;fillColor=#2E73B8;gradientColor=none;" vertex="1" parent="1">
          <mxGeometry x="668" y="630" width="49.5" height="66" as="geometry" />
        </mxCell>
      </root>
    </mxGraphModel>
  </diagram>
</mxfile>
